<?xml version="1.0" standalone="no"?>
<!DOCTYPE svg PUBLIC "-//W3C//DTD SVG 20010904//EN"
 "http://www.w3.org/TR/2001/REC-SVG-20010904/DTD/svg10.dtd">
<svg version="1.0" xmlns="http://www.w3.org/2000/svg"
 width="536.000000pt" height="525.000000pt" viewBox="0 0 536.000000 525.000000"
 preserveAspectRatio="xMidYMid meet">

<g transform="translate(0.000000,525.000000) scale(0.100000,-0.100000)"
fill="#000000" stroke="none">
<path d="M4676 5098 c-10 -63 -84 -306 -107 -351 -26 -50 -73 -72 -283 -131
-87 -25 -160 -47 -162 -49 -2 -2 51 -18 118 -36 238 -63 300 -90 329 -142 13
-26 109 -349 109 -370 0 -50 19 -5 60 142 52 188 83 257 125 281 27 15 105 40
335 106 l65 19 -75 22 c-252 74 -326 101 -353 129 -29 30 -61 114 -109 292
-17 63 -34 119 -38 123 -4 5 -10 -11 -14 -35z"/>
<path d="M2145 4918 c-2 -7 -9 -47 -14 -88 -6 -41 -23 -149 -37 -240 l-26
-166 -132 -44 c-72 -24 -195 -76 -274 -116 l-142 -72 -195 149 c-107 82 -201
149 -209 149 -8 0 -24 -12 -36 -27 -12 -16 -119 -127 -238 -248 -119 -121
-228 -232 -240 -247 l-24 -26 147 -212 148 -212 -61 -122 c-63 -124 -120 -271
-142 -363 -10 -44 -16 -53 -38 -57 -15 -3 -123 -21 -241 -40 -117 -19 -215
-37 -217 -39 -3 -2 -6 -179 -7 -393 l-2 -388 243 -41 243 -40 52 -154 c29 -85
57 -156 62 -158 6 -1 70 85 144 193 l133 196 -16 79 c-57 284 -35 579 66 859
32 91 119 264 170 339 187 275 480 499 788 604 215 73 497 96 719 58 264 -45
505 -154 703 -317 43 -35 79 -64 81 -64 6 0 77 119 77 128 0 4 -104 83 -231
176 l-231 170 139 36 c76 20 145 39 153 42 22 8 -193 109 -340 159 -69 23
-126 43 -128 44 -2 2 -25 141 -73 438 l-11 67 -379 0 c-295 0 -381 -3 -384
-12z m581 -212 c5 -14 63 -380 61 -382 -1 -1 -60 3 -131 9 -94 8 -162 8 -254
-1 -70 -6 -128 -9 -130 -7 -4 3 42 321 53 373 5 22 6 22 201 22 156 0 196 -3
200 -14z m-1423 -621 l146 -110 -47 -40 c-95 -80 -177 -162 -248 -248 l-73
-87 -24 32 c-100 138 -197 281 -195 288 2 5 63 72 136 149 90 94 138 138 147
133 7 -4 78 -56 158 -117z m-556 -1357 c-16 -132 -18 -262 -8 -367 7 -62 10
-115 8 -118 -5 -4 -356 55 -369 63 -4 3 -7 96 -5 207 l2 201 180 32 c99 17
184 32 189 33 5 0 6 -23 3 -51z"/>
<path d="M4370 4293 c-8 -4 -192 -52 -408 -109 -368 -96 -412 -109 -401 -117
2 -2 69 -53 149 -112 80 -59 146 -109 148 -110 2 -2 -12 -27 -31 -56 -19 -30
-66 -106 -104 -169 -564 -933 -725 -1187 -932 -1471 -8 -11 -12 -21 -10 -23 2
-2 96 -1 209 3 192 6 209 8 260 33 112 52 128 73 431 581 288 482 490 819 496
826 2 3 25 -15 51 -40 64 -61 204 -183 221 -193 11 -7 12 15 7 135 -27 578
-36 787 -36 807 0 22 -17 27 -50 15z"/>
<path d="M1786 3510 c-59 -10 -143 -52 -197 -98 -40 -34 -97 -114 -177 -244
l-42 -68 660 0 660 0 -17 -27 c-9 -16 -110 -163 -223 -328 -114 -165 -268
-390 -344 -500 -76 -110 -220 -321 -322 -468 -101 -148 -184 -270 -184 -273 0
-2 384 -3 853 -2 l852 3 68 32 c91 43 158 113 240 249 37 62 67 116 67 120 0
5 -290 8 -645 6 -629 -2 -646 -2 -636 16 6 11 59 91 119 178 342 502 931 1379
938 1398 6 15 -69 16 -807 15 -448 -1 -836 -5 -863 -9z"/>
<path d="M4108 3124 l-107 -175 19 -82 c33 -141 43 -252 37 -422 -10 -317 -90
-563 -265 -826 -223 -333 -567 -564 -965 -651 -148 -32 -446 -32 -594 0 -294
64 -544 198 -768 414 -63 61 -115 117 -115 125 0 8 24 49 54 92 189 273 274
394 568 814 180 258 328 471 328 474 0 3 -93 3 -207 1 -200 -3 -210 -4 -264
-29 -82 -39 -132 -89 -222 -224 -44 -66 -160 -235 -257 -375 -544 -787 -777
-1125 -790 -1149 -7 -14 41 -68 274 -307 l283 -289 59 45 c33 25 123 95 202
154 l144 109 151 -77 c137 -68 339 -146 381 -146 9 0 16 -4 16 -9 0 -4 16
-117 35 -251 19 -134 35 -247 35 -251 0 -5 175 -9 389 -9 l388 0 32 238 c18
130 35 246 37 257 4 16 21 25 70 38 101 26 260 92 369 152 54 30 103 55 108
55 4 0 76 -53 160 -118 84 -65 174 -133 200 -152 l48 -34 272 278 c150 153
273 282 275 286 1 3 -58 88 -132 188 -74 99 -142 192 -151 205 -15 23 -14 28
24 98 44 83 106 240 148 374 l28 90 240 40 240 40 3 392 2 392 -32 6 c-18 3
-118 19 -223 35 -236 37 -233 36 -238 58 -49 179 -59 200 -118 252 -31 27 -59
50 -61 50 -2 0 -51 -79 -110 -176z"/>
</g>
</svg>
